# xmcd CD Database Entry
#
# Track frame offsets:
# 150
# 18137
# 38355
# 52917
# 70066
# 88260
# 104782
# 119921
# 135180
# 155255
# 170654
#
# Disc length: 2483 seconds
#
# Revision: 2
# Processed by: cddbd v1.4PL0 Copyright (c) Steve Scherf et al.
# Submitted via: tcd 2.0b
#
DISCID=8a09b10b
DTITLE=Rosario - Muchas Flores
DYEAR=1900
DGENRE=
TTITLE0=Al Son del Tambor
TTITLE1=Como Quierer Que Te Quiera
TTITLE2=Aqua y Sal
TTITLE3=Muchas Flores
TTITLE4=Rosa y Miel
TTITLE5=Búscame
TTITLE6=Casa en el Aire
TTITLE7=Tuyo Siempre
TTITLE8=Déjame Ver
TTITLE9=Meneito
TTITLE10=Diferente
EXTD=
EXTT0=
EXTT1=
EXTT2=
EXTT3=
EXTT4=
EXTT5=
EXTT6=
EXTT7=
EXTT8=
EXTT9=
EXTT10=
PLAYORDER=
